<svg xmlns="http://www.w3.org/2000/svg" width="116" height="16" fill="none"><path fill="#F6F7FA" d="M77.24 15.146c0 .1-.034.184-.093.235a.376.376 0 0 1-.25.083h-.369v-.61h.36c.1 0 .184.025.243.075.075.041.109.117.109.217Zm-.042-1.012c0 .083-.025.15-.084.2-.05.05-.125.076-.218.076h-.368v-.527h.377c.092 0 .159.025.217.067.05.042.076.108.076.184Zm.485.242a.619.619 0 0 0 .075-.3.605.605 0 0 0-.209-.478c-.142-.125-.335-.184-.577-.184h-.988v2.536h1.072a.898.898 0 0 0 .393-.084.725.725 0 0 0 .293-.26.723.723 0 0 0 .108-.401.608.608 0 0 0-.108-.377.637.637 0 0 0-.26-.217v-.025a.6.6 0 0 0 .201-.21ZM79.215 14.042h.033l.31.945h-.661l.318-.945Zm-.343-.628-.862 2.536h.585l.151-.452h.97l.152.452h.61l-.87-2.536h-.736ZM82.395 13.414v1.59h-.025l-.97-1.59h-.629v2.536h.553v-1.59h.017l.97 1.59h.636v-2.536h-.552ZM83.507 15.356c.11.2.268.36.47.468.2.117.434.176.694.176.334 0 .619-.092.853-.276.234-.184.377-.418.435-.703h-.627a.73.73 0 0 1-.243.31.737.737 0 0 1-.41.117.725.725 0 0 1-.536-.218.772.772 0 0 1-.209-.544c0-.217.067-.401.21-.544a.712.712 0 0 1 .535-.217.68.68 0 0 1 .41.125.54.54 0 0 1 .226.318h.62a1.227 1.227 0 0 0-.218-.502 1.066 1.066 0 0 0-.436-.351 1.443 1.443 0 0 0-1.297.042c-.2.117-.36.276-.468.468-.109.201-.168.427-.168.67-.008.234.05.46.16.66ZM87.256 14.042h.034l.31.945h-.662l.318-.945Zm-.351-.628-.862 2.536h.586l.15-.452h.971l.15.452h.612l-.87-2.536h-.737ZM89.783 15.346c.109.2.268.36.468.469.201.117.436.175.695.175.335 0 .62-.092.854-.276.234-.184.376-.418.435-.703h-.628a.73.73 0 0 1-.243.31.737.737 0 0 1-.41.117.726.726 0 0 1-.535-.218.773.773 0 0 1-.21-.543c0-.218.068-.402.21-.544a.712.712 0 0 1 .535-.218c.16 0 .293.042.41.126a.54.54 0 0 1 .226.317h.62a1.227 1.227 0 0 0-.218-.502 1.067 1.067 0 0 0-.435-.351 1.443 1.443 0 0 0-1.297.042c-.201.117-.36.276-.469.468-.109.201-.167.427-.167.67-.008.243.05.468.159.661ZM94.644 14.677a.738.738 0 0 1-.209.544.725.725 0 0 1-.535.218.744.744 0 0 1-.544-.218.738.738 0 0 1-.21-.544.731.731 0 0 1 .753-.761c.218 0 .394.075.536.217a.75.75 0 0 1 .21.544Zm.594 0c0-.184-.033-.351-.1-.519a1.3 1.3 0 0 0-.276-.418 1.252 1.252 0 0 0-.427-.276 1.419 1.419 0 0 0-.535-.1 1.42 1.42 0 0 0-.536.1c-.168.067-.31.159-.427.276a1.332 1.332 0 0 0-.377.937 1.332 1.332 0 0 0 .377.937c.117.117.26.21.427.276.167.067.343.1.535.1.251 0 .486-.058.687-.175.209-.117.368-.276.485-.477.109-.192.167-.418.167-.66ZM97.65 14.677a.738.738 0 0 1-.21.544.725.725 0 0 1-.535.218.744.744 0 0 1-.544-.218.738.738 0 0 1-.209-.544.73.73 0 0 1 .753-.761c.218 0 .394.075.536.217.134.15.21.327.21.544Zm.594 0c0-.184-.033-.351-.1-.519a1.301 1.301 0 0 0-.276-.418 1.252 1.252 0 0 0-.427-.276 1.42 1.42 0 0 0-.536-.1c-.192 0-.368.033-.535.1-.168.067-.31.159-.427.276a1.334 1.334 0 0 0-.377.937 1.334 1.334 0 0 0 .377.937c.117.117.26.21.427.276.167.067.343.1.535.1.251 0 .486-.058.686-.175.21-.117.369-.276.486-.477.109-.192.167-.418.167-.66ZM99.975 14.26c0 .108-.033.2-.1.267a.347.347 0 0 1-.26.1h-.351V13.9h.351c.109 0 .193.034.26.1.067.068.1.151.1.26Zm.586 0a.802.802 0 0 0-.251-.612.874.874 0 0 0-.628-.234h-.979v2.536h.57v-.829h.41c.158 0 .309-.033.443-.109a.812.812 0 0 0 .318-.31.88.88 0 0 0 .117-.443ZM100.879 13.414v2.536h1.64v-.494h-1.071v-.544h.887v-.485h-.887v-.528h1.038v-.485h-1.607ZM104.285 14.25c0 .117-.033.2-.1.267s-.151.092-.259.092h-.369v-.711h.36a.4.4 0 0 1 .268.092c.067.067.1.15.1.26Zm.461.435a.792.792 0 0 0 .125-.444.797.797 0 0 0-.251-.602c-.167-.16-.385-.235-.644-.235h-.988v2.536h.569v-.845h.343l.436.845h.636l-.544-.963a.764.764 0 0 0 .318-.292ZM106.486 14.042h.034l.309.945h-.661l.318-.945Zm-.343-.628-.862 2.536h.586l.151-.452h.97l.151.452h.611l-.87-2.536h-.737ZM107.768 13.414v.494h.711v2.042h.569v-2.042h.711v-.494h-1.991ZM110.788 13.414h-.569v2.536h.569v-2.536ZM112.939 13.414l-.586 1.757h-.034l-.585-1.757h-.636l.937 2.536h.586l.945-2.536h-.627ZM114.512 14.042h.033l.31.945h-.661l.318-.945Zm-.343-.628-.862 2.536h.585l.151-.452h.971l.15.452h.611l-.87-2.536h-.736ZM22.217 9.062c-.426.293-.929.435-1.514.435-.804 0-1.456-.26-1.959-.787-.502-.527-.761-1.196-.761-2.016 0-.804.251-1.473.761-2.009.51-.535 1.164-.795 1.959-.795.585 0 1.088.151 1.514.452.419.301.703.686.829 1.155h2.284a4.54 4.54 0 0 0-.803-1.85 4.23 4.23 0 0 0-1.599-1.296c-.66-.327-1.405-.486-2.225-.486-.946 0-1.8.21-2.553.636a4.462 4.462 0 0 0-1.74 1.74c-.41.737-.611 1.557-.611 2.461 0 .912.2 1.74.61 2.469.41.728.988 1.305 1.733 1.732.753.418 1.598.636 2.552.636 1.23 0 2.268-.335 3.13-1.013.862-.678 1.39-1.54 1.598-2.577h-2.31c-.167.443-.468.82-.895 1.113ZM31.773 5.121h-.108c-.16-.25-.41-.469-.745-.67-.335-.2-.753-.3-1.239-.3-.937 0-1.707.342-2.293 1.037-.585.686-.878 1.59-.878 2.695 0 1.104.293 1.983.887 2.652.594.67 1.372 1.005 2.335 1.005.276 0 .527-.034.761-.1.234-.068.427-.16.577-.269.151-.108.277-.217.377-.31a1.5 1.5 0 0 0 .234-.292h.11v.803h2.033v-7.03h-2.05v.78Zm-.401 4.017c-.293.343-.686.519-1.172.519-.485 0-.878-.168-1.18-.502-.301-.335-.452-.779-.452-1.323 0-.535.151-.979.452-1.313.302-.335.686-.51 1.163-.51s.87.167 1.172.493c.301.335.46.77.46 1.322 0 .536-.15.97-.443 1.314ZM44.377 4.318v.803h-.109c-.159-.25-.41-.469-.745-.67-.334-.2-.753-.3-1.238-.3-.937 0-1.707.342-2.293 1.037-.586.686-.879 1.59-.879 2.695 0 1.104.293 1.983.887 2.652.594.67 1.373 1.005 2.335 1.005.276 0 .527-.034.761-.1a1.85 1.85 0 0 0 .578-.269c.15-.108.276-.217.377-.31.092-.091.175-.192.234-.292h.109v.803h2.033v-7.03h-2.05v-.024Zm-.402 4.82c-.293.343-.686.519-1.171.519-.486 0-.879-.168-1.18-.502-.302-.335-.452-.779-.452-1.323 0-.535.15-.979.452-1.313.301-.335.686-.51 1.163-.51s.87.167 1.172.493c.3.335.46.77.46 1.322 0 .536-.15.97-.444 1.314ZM37.95 5.012c-.293.21-.636.36-1.02.36-.394 0-.745-.15-1.038-.368v6.628c0 .3-.084.535-.26.702-.167.168-.41.252-.711.252h-.486v1.824h.88c.786 0 1.422-.251 1.907-.745.486-.494.728-1.163.728-2.008V5.012ZM36.912 2.51c-.645 0-1.172.527-1.172 1.171 0 .645.527 1.172 1.172 1.172.644 0 1.171-.527 1.171-1.172a1.17 1.17 0 0 0-1.171-1.171ZM50.267.836h-2.109v10.527h2.109V.836ZM54.075 11.363V7.422c0-.385.108-.703.334-.963.218-.259.51-.384.862-.384.343 0 .62.117.829.343.21.226.31.527.31.895v4.05h2.066V6.677c0-.745-.225-1.347-.686-1.816-.46-.468-1.07-.703-1.84-.703-.444 0-.83.092-1.164.276-.335.184-.577.402-.728.67h-.109v-.77h-1.941v7.03h2.067ZM64.96 7.808c0 .527-.15.945-.443 1.28-.293.326-.686.494-1.18.494-.493 0-.887-.16-1.18-.477-.3-.318-.443-.753-.443-1.29 0-.535.15-.97.444-1.288.3-.326.686-.485 1.171-.485s.87.159 1.18.477c.301.31.452.736.452 1.289Zm2.01 3.48V4.344h-2.051v.803h-.109c-.15-.234-.393-.451-.736-.66-.343-.21-.77-.31-1.28-.31-.913 0-1.666.335-2.26.996-.594.66-.895 1.548-.895 2.652 0 .737.142 1.381.426 1.942.285.552.662.979 1.147 1.263.477.285 1.02.435 1.632.435.267 0 .51-.033.745-.1.234-.067.426-.15.585-.26.16-.108.285-.209.385-.309.1-.1.184-.2.26-.301h.108v.803c0 1.088-.544 1.624-1.631 1.624-.436 0-.77-.084-1.013-.243a.99.99 0 0 1-.435-.653h-1.875c.017.343.1.67.243.98.15.309.352.585.62.828.267.242.61.435 1.037.585.427.143.895.218 1.423.218.61 0 1.154-.084 1.623-.26.477-.167.862-.41 1.155-.71.293-.302.51-.653.66-1.047.16-.426.235-.862.235-1.33ZM73.556 7.045h-3.221c.05-.352.226-.653.527-.904a1.639 1.639 0 0 1 1.088-.377c.451 0 .82.117 1.113.36.284.243.451.552.493.92Zm1.908 1.372v-.594a4.05 4.05 0 0 0-.234-1.398 3.623 3.623 0 0 0-.661-1.163 3.044 3.044 0 0 0-1.105-.803c-.452-.2-.962-.293-1.523-.293-1.07 0-1.941.343-2.61 1.038-.67.694-1.005 1.59-1.005 2.686 0 .694.16 1.322.469 1.883.31.56.736.995 1.28 1.305.544.31 1.155.469 1.824.469.938 0 1.716-.218 2.335-.653a2.808 2.808 0 0 0 1.163-1.774H73.54c-.11.234-.302.427-.57.586-.267.159-.602.234-.987.234-.485 0-.87-.142-1.18-.427-.31-.284-.477-.644-.51-1.088h5.171v-.008ZM78.788 11.363V7.422c0-.385.108-.703.334-.963.218-.259.51-.384.862-.384.343 0 .62.117.829.343.2.226.31.527.31.895v4.05h2.066V6.677c0-.745-.226-1.347-.686-1.816-.46-.468-1.071-.703-1.84-.703-.444 0-.83.092-1.164.276-.335.184-.578.402-.728.67h-.109v-.77h-1.941v7.03h2.067ZM93.213 7.045H89.99c.05-.352.226-.653.527-.904a1.639 1.639 0 0 1 1.088-.377c.452 0 .82.117 1.113.36.284.243.452.552.494.92Zm1.908 1.372v-.594a4.05 4.05 0 0 0-.235-1.398 3.624 3.624 0 0 0-.66-1.163 3.044 3.044 0 0 0-1.105-.803c-.452-.2-.963-.293-1.523-.293-1.072 0-1.942.343-2.611 1.038-.67.694-1.005 1.59-1.005 2.686 0 .694.16 1.322.469 1.883.31.56.736.995 1.28 1.305.544.31 1.155.469 1.825.469.937 0 1.715-.218 2.334-.653a2.808 2.808 0 0 0 1.163-1.774h-1.866c-.108.234-.3.427-.569.586-.267.159-.602.234-.987.234-.485 0-.87-.142-1.18-.427-.31-.284-.477-.644-.51-1.088h5.18v-.008ZM98.677 11.363V8.15c0-.603.15-1.08.452-1.431.301-.352.703-.519 1.213-.519h.812V4.275h-.686c-.435 0-.812.11-1.122.327a1.986 1.986 0 0 0-.686.77h-.1V4.334h-1.958v7.03h2.075ZM106.945 7.848c0 .536-.159.97-.485 1.314-.327.343-.737.51-1.231.51-.493 0-.895-.167-1.213-.51-.318-.343-.477-.778-.477-1.314s.159-.97.477-1.314c.318-.343.728-.51 1.213-.51.494 0 .904.167 1.231.51.326.343.485.778.485 1.314Zm2.075 0c0-1.046-.351-1.925-1.054-2.628-.703-.703-1.607-1.054-2.711-1.054-.561 0-1.072.092-1.54.285a3.606 3.606 0 0 0-1.197.778c-.326.326-.577.72-.761 1.171a3.813 3.813 0 0 0-.277 1.448c0 .686.159 1.314.469 1.875a3.39 3.39 0 0 0 1.331 1.33 3.91 3.91 0 0 0 1.958.494c.552 0 1.063-.092 1.54-.285.468-.192.87-.452 1.205-.778.326-.326.585-.72.769-1.172.176-.468.268-.954.268-1.464ZM110.452 10.92c.502.41 1.247.62 2.226.62.971 0 1.732-.218 2.276-.653.544-.435.812-.996.812-1.699a2.3 2.3 0 0 0-.151-.87 1.585 1.585 0 0 0-.401-.603 2.581 2.581 0 0 0-1.247-.602l-.678-.126c-.226-.042-.444-.083-.644-.117a13.356 13.356 0 0 1-.544-.1c-.159-.025-.268-.076-.335-.151a.405.405 0 0 1-.092-.276c0-.176.092-.31.276-.419.184-.108.435-.159.745-.159.326 0 .586.059.77.168a.684.684 0 0 1 .334.46h1.783c-.042-.711-.327-1.264-.854-1.657-.527-.385-1.205-.586-2.033-.586-.929 0-1.657.226-2.184.67-.528.443-.795.987-.795 1.64 0 .351.058.653.175.912.118.26.268.452.452.594.184.143.394.251.636.352.243.092.486.159.728.2.251.042.494.084.728.118.235.042.452.075.636.109.184.033.352.092.494.184.142.092.218.209.218.36 0 .192-.092.35-.285.468-.184.117-.452.176-.795.176s-.611-.059-.812-.184a.694.694 0 0 1-.343-.544h-1.874c.017.728.284 1.305.778 1.715ZM84.795 5.045v6.31h2.058V5.053c-.292.21-.635.36-1.02.36-.394 0-.737-.15-1.038-.368ZM85.816 4.886c.644 0 1.172-.527 1.172-1.171 0-.645-.528-1.172-1.172-1.172-.644 0-1.172.527-1.172 1.172 0 .652.52 1.171 1.172 1.171ZM8.796 2.568a1.186 1.186 0 0 0 1.556-.61A1.186 1.186 0 0 0 9.742.4a1.168 1.168 0 0 0-1.557.602 1.19 1.19 0 0 0 .61 1.565ZM8.846 5.505c.945-.444 2.016-.895 2.92-1.481.285-.184 1.665-.645 1.038-.829-1.758-.527-3.038.268-3.958 2.31ZM6.577 4.526c-.326-.995-.711-2.092-.904-3.146-.058-.335-.66-1.657-.1-1.33C7.154.977 7.447 2.45 6.577 4.525ZM5.136 10.895a1.185 1.185 0 0 0-1.556.61c-.26.603.017 1.297.61 1.557a1.181 1.181 0 1 0 .946-2.167ZM5.087 7.95c-.946.443-2.017.895-2.92 1.48-.285.184-1.666.645-1.038.829 1.757.535 3.037-.26 3.958-2.31ZM7.355 8.938c.326.995.72 2.083.904 3.146.058.335.66 1.657.1 1.33-1.581-.928-1.874-2.401-1.004-4.476ZM11.129 8.56c-.26.602.017 1.296.61 1.556a1.186 1.186 0 0 0 1.557-.611 1.181 1.181 0 1 0-2.167-.946ZM8.184 8.611c.443.946.895 2.017 1.48 2.92.185.285.645 1.666.83 1.038.535-1.757-.26-3.037-2.31-3.958ZM9.17 6.343c.996-.327 2.084-.72 3.146-.904.335-.059 1.657-.661 1.33-.1-.928 1.581-2.4 1.874-4.476 1.004ZM2.802 4.904a1.186 1.186 0 0 0-.61-1.556 1.186 1.186 0 0 0-1.557.61c-.268.603 0 1.298.603 1.557a1.19 1.19 0 0 0 1.564-.61ZM5.74 4.852c-.444-.945-.896-2.016-1.482-2.92C4.074 1.647 3.614.267 3.43.894c-.527 1.758.268 3.038 2.31 3.958ZM4.76 7.12c-.995.327-2.091.712-3.146.904-.334.059-1.657.662-1.33.1.929-1.58 2.401-1.874 4.477-1.003Z"/></svg>