<svg xmlns="http://www.w3.org/2000/svg" width="174" height="24" fill="none"><path fill="#F8B02C" d="M115.974 22.721c0 .151-.05.276-.138.352a.567.567 0 0 1-.378.125h-.555v-.916h.542c.151 0 .277.038.366.113.113.063.163.176.163.326Zm-.063-1.518a.369.369 0 0 1-.126.3c-.075.076-.189.114-.327.114h-.555v-.791h.567c.139 0 .24.038.328.1a.348.348 0 0 1 .113.277Zm.731.364a.922.922 0 0 0 .114-.452.906.906 0 0 0-.315-.716c-.214-.188-.504-.276-.87-.276h-1.487v3.803h1.613c.214 0 .403-.037.593-.125.176-.088.327-.213.441-.39.113-.175.163-.376.163-.602 0-.226-.05-.414-.163-.565a.965.965 0 0 0-.391-.326v-.038a.897.897 0 0 0 .302-.313ZM118.95 21.063h.05l.466 1.418h-.995l.479-1.419Zm-.517-.942-1.298 3.803h.882l.227-.677h1.462l.227.677h.92l-1.311-3.803h-1.109ZM123.738 20.121v2.385h-.038l-1.462-2.385h-.945v3.803h.832V21.54h.025l1.462 2.384h.958v-3.803h-.832ZM125.414 23.035c.164.3.404.54.706.703.303.175.656.263 1.046.263.504 0 .933-.138 1.286-.414.353-.276.567-.628.655-1.055h-.945a1.1 1.1 0 0 1-.366.465 1.113 1.113 0 0 1-.617.176c-.328 0-.592-.113-.807-.327a1.16 1.16 0 0 1-.315-.816c0-.326.101-.602.315-.816.202-.213.479-.326.807-.326.239 0 .441.063.617.188a.81.81 0 0 1 .341.477h.932a1.827 1.827 0 0 0-.327-.753 1.605 1.605 0 0 0-.656-.527 2.178 2.178 0 0 0-.907-.2c-.391 0-.731.087-1.046.263a1.89 1.89 0 0 0-.706.703c-.164.301-.252.64-.252 1.004-.013.351.076.69.239.992ZM131.06 21.063h.05l.467 1.418h-.996l.479-1.419Zm-.529-.942-1.299 3.803h.883l.226-.677h1.462l.227.677h.92l-1.31-3.803h-1.109ZM134.866 23.023c.163.301.403.54.705.703.303.176.656.263 1.047.263.504 0 .932-.138 1.285-.414.353-.276.567-.627.655-1.054h-.945a1.09 1.09 0 0 1-.365.464 1.115 1.115 0 0 1-.618.176c-.328 0-.592-.113-.807-.326a1.16 1.16 0 0 1-.315-.816c0-.327.101-.603.315-.816.202-.214.479-.327.807-.327.24 0 .441.063.618.189a.81.81 0 0 1 .34.477h.933a1.842 1.842 0 0 0-.328-.753 1.607 1.607 0 0 0-.655-.528c-.278-.125-.58-.2-.908-.2-.391 0-.731.087-1.046.263a1.898 1.898 0 0 0-.706.703c-.164.301-.252.64-.252 1.004-.012.364.076.703.24.992ZM142.189 22.018c0 .326-.101.602-.315.816a1.095 1.095 0 0 1-.807.326c-.327 0-.605-.113-.819-.326-.214-.214-.315-.49-.315-.816 0-.327.101-.603.315-.816.214-.214.479-.327.819-.327.328 0 .593.113.807.327.214.226.315.49.315.816Zm.895 0a1.964 1.964 0 0 0-.567-1.406 1.895 1.895 0 0 0-.643-.415c-.252-.1-.517-.15-.807-.15-.29 0-.554.05-.806.15-.252.1-.467.239-.643.415a1.99 1.99 0 0 0-.567 1.406 1.99 1.99 0 0 0 .567 1.405c.176.176.391.314.643.415.252.1.516.15.806.15.378 0 .731-.088 1.034-.263.315-.176.554-.415.731-.716.164-.288.252-.627.252-.991ZM146.714 22.018a1.094 1.094 0 0 1-1.121 1.142c-.328 0-.605-.113-.82-.326-.214-.214-.315-.49-.315-.816 0-.327.101-.603.315-.816.215-.214.479-.327.82-.327.327 0 .592.113.806.327.202.226.315.49.315.816Zm.895 0a1.964 1.964 0 0 0-.567-1.406 1.885 1.885 0 0 0-.643-.415 2.14 2.14 0 0 0-.806-.15c-.29 0-.555.05-.807.15-.252.1-.466.239-.643.415a1.964 1.964 0 0 0-.567 1.406 1.962 1.962 0 0 0 .567 1.406c.177.175.391.313.643.414.252.1.517.15.807.15.378 0 .731-.088 1.033-.263a1.9 1.9 0 0 0 .731-.716c.164-.288.252-.627.252-.991ZM150.216 21.389c0 .163-.05.301-.151.402a.523.523 0 0 1-.39.15h-.53V20.85h.53c.163 0 .289.05.39.15.101.101.151.227.151.39Zm.883 0c0-.377-.126-.678-.378-.916-.252-.239-.568-.352-.946-.352h-1.474v3.803h.857v-1.242h.617c.24 0 .467-.05.668-.163a1.21 1.21 0 0 0 .479-.465c.114-.2.177-.414.177-.665ZM151.578 20.121v3.803h2.47v-.74h-1.613v-.816h1.336v-.728h-1.336v-.79h1.563v-.729h-2.42ZM156.709 21.38c0 .175-.05.3-.151.4-.101.101-.227.139-.391.139h-.554v-1.067h.542c.164 0 .302.05.403.138.101.1.151.226.151.39Zm.694.652c.126-.189.189-.414.189-.665 0-.364-.126-.666-.379-.904-.252-.239-.579-.352-.97-.352h-1.487v3.804h.857v-1.268h.517l.655 1.268h.958l-.819-1.444c.189-.088.353-.238.479-.44ZM160.022 21.063h.05l.467 1.418h-.996l.479-1.419Zm-.517-.942-1.298 3.803h.882l.227-.677h1.462l.227.677h.92l-1.311-3.803h-1.109ZM161.951 20.121v.74h1.071v3.063h.857v-3.062h1.072v-.74h-3ZM166.5 20.121h-.857v3.803h.857v-3.803ZM169.741 20.121l-.882 2.636h-.05l-.882-2.636h-.958l1.411 3.803h.883l1.424-3.803h-.946ZM172.11 21.063h.05l.467 1.418h-.996l.479-1.419Zm-.517-.942-1.298 3.803h.882l.227-.677h1.462l.227.677h.92l-1.311-3.803h-1.109Z"/><path fill="#134392" d="M33.108 13.594c-.643.44-1.399.652-2.281.652-1.21 0-2.193-.389-2.95-1.18-.755-.79-1.146-1.794-1.146-3.025 0-1.205.378-2.209 1.147-3.012.768-.803 1.752-1.193 2.949-1.193.882 0 1.638.226 2.281.678.63.452 1.059 1.03 1.248 1.733h3.44a6.797 6.797 0 0 0-1.21-2.775c-.604-.815-1.411-1.468-2.407-1.945-.995-.49-2.117-.728-3.352-.728-1.424 0-2.71.314-3.844.954-1.134.64-2.004 1.506-2.622 2.61-.617 1.105-.92 2.335-.92 3.691 0 1.368.303 2.61.92 3.703a6.813 6.813 0 0 0 2.61 2.598c1.134.628 2.407.954 3.843.954 1.853 0 3.416-.502 4.714-1.519 1.298-1.016 2.092-2.31 2.407-3.866h-3.478c-.252.666-.706 1.23-1.349 1.67ZM47.502 7.68h-.164c-.24-.376-.618-.702-1.122-1.004-.504-.3-1.134-.451-1.865-.451-1.412 0-2.571.514-3.453 1.556-.883 1.03-1.324 2.385-1.324 4.042s.441 2.975 1.336 3.979 2.067 1.506 3.517 1.506c.415 0 .794-.05 1.146-.15.353-.1.643-.239.87-.402.227-.163.416-.326.567-.464.139-.139.265-.29.353-.44h.164v1.205h3.062V6.513h-3.087v1.168Zm-.605 6.026c-.441.514-1.034.778-1.765.778-.73 0-1.323-.251-1.777-.753-.453-.502-.68-1.168-.68-1.983 0-.804.227-1.469.68-1.971.454-.502 1.034-.766 1.752-.766s1.31.251 1.764.74c.454.503.694 1.156.694 1.984 0 .803-.227 1.456-.668 1.97ZM66.48 6.476V7.68h-.164c-.24-.377-.617-.703-1.121-1.005-.504-.3-1.135-.451-1.866-.451-1.411 0-2.57.514-3.453 1.556-.882 1.03-1.323 2.385-1.323 4.042s.44 2.975 1.336 3.979c.894 1.004 2.067 1.506 3.516 1.506.416 0 .794-.05 1.147-.15.353-.1.643-.239.87-.402.226-.163.415-.326.567-.464.138-.139.264-.29.352-.44h.164v1.205h3.063V6.513H66.48v-.037Zm-.605 7.23c-.44.514-1.033.778-1.764.778-.731 0-1.324-.251-1.777-.753-.454-.502-.68-1.168-.68-1.983 0-.804.226-1.469.68-1.971.453-.502 1.033-.766 1.751-.766.719 0 1.311.251 1.765.74.454.503.693 1.156.693 1.984 0 .803-.227 1.456-.668 1.97ZM56.801 7.518c-.441.314-.958.54-1.537.54-.593 0-1.122-.226-1.563-.552v9.941c0 .452-.126.804-.39 1.055-.253.25-.618.376-1.072.376h-.731v2.737h1.323c1.185 0 2.143-.377 2.874-1.117.73-.741 1.096-1.745 1.096-3.013V7.518ZM55.24 3.766c-.971 0-1.765.79-1.765 1.757 0 .966.794 1.757 1.764 1.757s1.765-.79 1.765-1.757c0-.98-.794-1.757-1.765-1.757ZM75.354 1.254h-3.176v15.79h3.176V1.255ZM81.09 17.044v-5.912c0-.578.163-1.055.504-1.444.327-.389.769-.577 1.298-.577.517 0 .932.176 1.248.514.315.34.466.791.466 1.344v6.075h3.113v-7.03c0-1.117-.34-2.02-1.034-2.723-.693-.703-1.613-1.055-2.772-1.055-.668 0-1.248.138-1.752.415-.504.276-.87.602-1.097 1.004h-.163V6.5h-2.924v10.544h3.113ZM97.484 11.71c0 .79-.227 1.418-.668 1.92-.44.49-1.033.74-1.777.74-.743 0-1.336-.238-1.777-.715-.453-.477-.668-1.13-.668-1.933 0-.803.227-1.456.668-1.933.454-.49 1.034-.728 1.765-.728.73 0 1.31.238 1.777.715.453.465.68 1.105.68 1.933Zm3.025 5.221V6.513h-3.088v1.205h-.164c-.226-.352-.592-.678-1.109-.992-.516-.314-1.159-.464-1.928-.464-1.374 0-2.508.502-3.403 1.493-.894.992-1.348 2.323-1.348 3.98 0 1.104.214 2.07.643 2.912.428.828.995 1.468 1.726 1.895.719.427 1.538.653 2.458.653.403 0 .769-.05 1.121-.15.353-.101.643-.227.883-.39s.428-.314.58-.464a4.15 4.15 0 0 0 .39-.452h.164v1.205c0 1.632-.82 2.435-2.458 2.435-.655 0-1.16-.126-1.525-.364-.365-.251-.58-.578-.655-.98h-2.823a3.94 3.94 0 0 0 .365 1.47c.227.464.53.878.933 1.242s.92.653 1.563.879a6.731 6.731 0 0 0 2.142.326c.92 0 1.74-.125 2.445-.389.719-.251 1.298-.615 1.74-1.067a4.56 4.56 0 0 0 .995-1.569c.24-.64.353-1.293.353-1.996ZM110.428 10.568h-4.852c.075-.527.34-.98.794-1.356.453-.376.995-.565 1.638-.565.681 0 1.235.176 1.676.54.429.364.681.829.744 1.381Zm2.873 2.059v-.892a6.04 6.04 0 0 0-.353-2.096 5.423 5.423 0 0 0-.995-1.745c-.429-.502-.983-.903-1.664-1.205-.68-.3-1.449-.439-2.294-.439-1.613 0-2.924.515-3.932 1.556-1.008 1.042-1.512 2.385-1.512 4.03 0 1.042.239 1.983.706 2.824a4.977 4.977 0 0 0 1.928 1.958c.819.465 1.739.703 2.747.703 1.412 0 2.584-.326 3.517-.979.932-.653 1.512-1.544 1.752-2.661h-2.798c-.164.351-.454.64-.857.879-.404.238-.908.351-1.488.351-.731 0-1.31-.213-1.777-.64-.466-.427-.718-.967-.768-1.632h7.788v-.012ZM118.306 17.044v-5.912c0-.578.164-1.055.504-1.444.328-.389.769-.577 1.299-.577.516 0 .932.176 1.247.514.303.34.467.791.467 1.344v6.075h3.113v-7.03c0-1.117-.341-2.02-1.034-2.723-.693-.703-1.613-1.055-2.773-1.055-.668 0-1.247.138-1.751.415-.505.276-.87.602-1.097 1.004h-.164V6.5h-2.924v10.544h3.113ZM140.035 10.568h-4.852c.076-.527.34-.98.794-1.356.454-.376.996-.565 1.638-.565.681 0 1.236.176 1.677.54.428.364.68.829.743 1.381Zm2.874 2.059v-.892c0-.74-.114-1.443-.353-2.096a5.426 5.426 0 0 0-.996-1.745c-.428-.502-.983-.903-1.663-1.205-.681-.3-1.45-.439-2.294-.439-1.613 0-2.924.515-3.932 1.556-1.009 1.042-1.513 2.385-1.513 4.03 0 1.042.24 1.983.706 2.824a4.977 4.977 0 0 0 1.928 1.958c.819.465 1.74.703 2.748.703 1.411 0 2.583-.326 3.516-.979.933-.653 1.512-1.544 1.752-2.661h-2.811c-.163.351-.453.64-.857.879-.403.238-.907.351-1.487.351-.731 0-1.311-.213-1.777-.64-.466-.427-.718-.967-.769-1.632h7.802v-.012ZM148.264 17.046v-4.82c0-.904.227-1.62.681-2.147.454-.527 1.059-.778 1.827-.778h1.223V6.414h-1.034c-.655 0-1.222.163-1.688.49-.479.326-.82.715-1.034 1.154h-.151V6.502h-2.949v10.544h3.125ZM160.716 11.773c0 .803-.239 1.456-.731 1.97-.491.515-1.109.766-1.852.766-.744 0-1.349-.25-1.828-.765-.479-.515-.718-1.168-.718-1.971 0-.803.239-1.456.718-1.97.479-.515 1.097-.766 1.828-.766.743 0 1.361.25 1.852.765.492.515.731 1.168.731 1.971Zm3.126 0c0-1.569-.53-2.887-1.588-3.941-1.059-1.055-2.42-1.582-4.084-1.582-.844 0-1.613.138-2.319.427a5.454 5.454 0 0 0-1.802 1.167c-.491.49-.87 1.08-1.147 1.757a5.7 5.7 0 0 0-.416 2.172c0 1.03.24 1.97.706 2.812a5.092 5.092 0 0 0 2.004 1.995c.87.49 1.853.741 2.949.741a6.14 6.14 0 0 0 2.319-.427 5.632 5.632 0 0 0 1.815-1.167c.492-.49.882-1.08 1.16-1.757a6.186 6.186 0 0 0 .403-2.197ZM165.998 16.38c.756.614 1.878.928 3.353.928 1.462 0 2.609-.326 3.428-.979.819-.652 1.222-1.494 1.222-2.548 0-.502-.075-.929-.227-1.305a2.365 2.365 0 0 0-.605-.904 3.861 3.861 0 0 0-1.877-.904l-1.021-.188c-.341-.063-.668-.126-.971-.176-.302-.05-.579-.1-.819-.15-.239-.038-.403-.114-.504-.226a.61.61 0 0 1-.139-.415c0-.263.139-.464.416-.627.278-.163.656-.239 1.122-.239.491 0 .882.088 1.159.251.278.163.442.402.505.69h2.684c-.063-1.066-.492-1.895-1.286-2.485-.794-.577-1.814-.878-3.062-.878-1.399 0-2.496.339-3.29 1.004s-1.197 1.481-1.197 2.46c0 .527.088.98.265 1.368.176.39.403.678.68.891.278.214.593.377.958.528.366.138.731.238 1.097.3.378.064.743.126 1.096.177.353.062.681.113.958.163.277.05.529.138.744.276.214.138.327.314.327.54 0 .288-.138.527-.428.703-.277.175-.681.263-1.197.263-.517 0-.921-.088-1.223-.276a1.04 1.04 0 0 1-.517-.816h-2.823c.025 1.092.429 1.958 1.172 2.573ZM127.355 7.568v9.465h3.101V7.58c-.441.314-.958.54-1.538.54-.592 0-1.109-.226-1.563-.553ZM128.893 7.331c.971 0 1.765-.79 1.765-1.757 0-.967-.794-1.758-1.765-1.758-.97 0-1.764.791-1.764 1.758 0 .979.781 1.757 1.764 1.757Z"/><path fill="#F8B02C" d="M12.893 3.852a1.788 1.788 0 0 0 2.344-.916A1.776 1.776 0 0 0 14.317.6a1.762 1.762 0 0 0-2.344.904c-.39.904.013 1.945.92 2.347ZM12.969 8.26c1.424-.665 3.037-1.343 4.398-2.221.429-.276 2.508-.967 1.563-1.243-2.647-.79-4.575.402-5.961 3.464ZM9.555 6.79c-.492-1.493-1.071-3.137-1.361-4.72-.089-.501-.996-2.484-.152-1.995 2.382 1.393 2.824 3.603 1.513 6.716ZM7.386 16.342a1.788 1.788 0 0 0-2.345.916c-.39.904.026 1.946.92 2.335a1.788 1.788 0 0 0 2.345-.917 1.77 1.77 0 0 0-.92-2.334ZM7.31 11.924c-1.424.665-3.037 1.343-4.398 2.222-.429.276-2.508.966-1.563 1.242 2.647.804 4.575-.389 5.962-3.464ZM10.724 13.406c.492 1.494 1.084 3.126 1.361 4.72.088.502.996 2.485.151 1.996-2.382-1.394-2.823-3.603-1.512-6.716Z"/><path fill="#134392" d="M16.409 12.84c-.391.904.025 1.946.92 2.335a1.788 1.788 0 0 0 2.344-.917 1.776 1.776 0 0 0-.92-2.334 1.782 1.782 0 0 0-2.344.916ZM11.973 12.916c.668 1.418 1.348 3.025 2.23 4.38.278.428.97 2.499 1.248 1.557.807-2.636-.39-4.556-3.478-5.937ZM13.459 9.514c1.5-.49 3.138-1.08 4.739-1.356.504-.087 2.495-.991 2.004-.15-1.4 2.372-3.617 2.812-6.743 1.506ZM3.868 7.356a1.776 1.776 0 0 0-.92-2.335 1.788 1.788 0 0 0-2.344.917 1.75 1.75 0 0 0 .907 2.334 1.796 1.796 0 0 0 2.357-.916ZM8.291 7.28c-.668-1.419-1.348-3.026-2.23-4.381C5.782 2.472 5.09.4 4.812 1.342 4.019 3.978 5.216 5.9 8.29 7.28ZM6.818 10.682c-1.5.49-3.15 1.067-4.739 1.356-.504.088-2.495.991-2.004.15 1.4-2.372 3.618-2.811 6.743-1.506Z"/></svg>