<svg xmlns="http://www.w3.org/2000/svg" width="16" height="16" fill="none"><g clip-path="url(#a)"><path fill="#3E536F" fill-rule="evenodd" d="M8.093.673c.069.01.135.03.195.059l6.654 3.024c.238.108.39.346.39.607 0 6.41-4.686 9.934-7.066 10.914a.664.664 0 0 1-.534 0C5.352 14.297.666 10.773.666 4.363c0-.261.153-.499.39-.607L7.71.732a.662.662 0 0 1 .383-.06Zm-.76 1.695-5.326 2.42c.174 4.692 3.204 7.574 5.326 8.803V2.368Zm1.333 11.223c2.122-1.229 5.151-4.111 5.325-8.802l-5.325-2.42V13.59Z" clip-rule="evenodd"/></g><defs><clipPath id="a"><path fill="#fff" d="M0 0h16v16H0z"/></clipPath></defs></svg>