<svg xmlns="http://www.w3.org/2000/svg" width="24" height="24" fill="none"><path fill="#0F4D82" d="m1 23.263 1.574-5.714a10.926 10.926 0 0 1-1.478-5.518C1.096 5.947 6.07 1 12.18 1c2.966 0 5.751 1.148 7.84 3.233a10.913 10.913 0 0 1 3.243 7.804c0 6.084-4.975 11.03-11.089 11.03h-.005c-1.855 0-3.679-.465-5.3-1.343L1 23.264Zm6.15-3.534.336.201a9.272 9.272 0 0 0 4.688 1.28h.006c5.076 0 9.212-4.11 9.212-9.168 0-2.45-.957-4.751-2.695-6.487a9.165 9.165 0 0 0-6.517-2.687c-5.077-.006-9.213 4.105-9.213 9.163a9.1 9.1 0 0 0 1.409 4.878l.218.35-.93 3.38 3.487-.91Z"/><path fill="#0F4D82" d="m1 23.263 1.574-5.714a10.926 10.926 0 0 1-1.478-5.518C1.096 5.947 6.07 1 12.18 1c2.966 0 5.751 1.148 7.84 3.233a10.913 10.913 0 0 1 3.243 7.804c0 6.084-4.975 11.03-11.089 11.03h-.005c-1.855 0-3.679-.465-5.3-1.343L1 23.264Zm6.15-3.534.336.201a9.272 9.272 0 0 0 4.688 1.28h.006c5.076 0 9.212-4.11 9.212-9.168 0-2.45-.957-4.751-2.695-6.487a9.165 9.165 0 0 0-6.517-2.687c-5.077-.006-9.213 4.105-9.213 9.163a9.1 9.1 0 0 0 1.409 4.878l.218.35-.93 3.38 3.487-.91Z"/><path fill="#0F4D82" fill-rule="evenodd" d="M9.41 7.418c-.208-.46-.425-.471-.622-.477-.16-.005-.346-.005-.532-.005-.186 0-.484.069-.739.344-.255.275-.967.942-.967 2.302 0 1.354.994 2.666 1.132 2.851.138.185 1.92 3.058 4.731 4.164 2.34.92 2.818.735 3.323.688.505-.048 1.637-.667 1.871-1.312.229-.646.229-1.196.16-1.312-.07-.117-.256-.185-.532-.323s-1.637-.804-1.893-.9c-.255-.09-.44-.137-.622.138-.186.275-.717.894-.877 1.08-.16.185-.324.206-.6.068-.277-.137-1.17-.428-2.228-1.37-.824-.73-1.382-1.635-1.541-1.91-.16-.275-.016-.423.122-.56.122-.123.276-.324.415-.482.138-.16.186-.275.276-.46.09-.186.048-.345-.021-.482-.07-.132-.612-1.497-.856-2.042Z" clip-rule="evenodd"/></svg>